<svg xmlns="http://www.w3.org/2000/svg" viewBox="0 0 64 64">
    <path d="M37.69 5.1a6.33 6.33 0 0 1 11 4.56 6.33 6.33 0 0 0 6.64 6.64 6.33 6.33 0 0 1 4.56 11 6.32 6.32 0 0 0 0 9.38 6.33 6.33 0 0 1-4.56 11 6.33 6.33 0 0 0-6.64 6.64 6.33 6.33 0 0 1-11 4.56 6.32 6.32 0 0 0-9.38 0 6.33 6.33 0 0 1-11-4.56 6.33 6.33 0 0 0-6.64-6.64 6.33 6.33 0 0 1-4.56-11 6.32 6.32 0 0 0 0-9.38 6.33 6.33 0 0 1 4.56-11 6.33 6.33 0 0 0 6.63-6.64 6.33 6.33 0 0 1 11-4.56 6.32 6.32 0 0 0 9.39 0Z" fill="#ff927d" />
    <circle cx="33" cy="32" r="22" fill="#fff35f" stroke="#54596e" stroke-linecap="round" stroke-linejoin="round" stroke-width="2"/>
    <path fill="#54596e" d="M33 48a22 22 0 0 1-21.79-19 22.78 22.78 0 0 0-.21 3 22 22 0 0 0 44 0 22.78 22.78 0 0 0-.21-3A22 22 0 0 1 33 48Z" opacity=".15"/>
    <circle cx="22" cy="23" r="2" class="cls-4"/>
    <circle cx="44" cy="23" r="2" class="cls-4"/>
    <path d="M40 31.18c0-1.57-14-1.57-14 0 0 2.68 3.13 4.82 7 4.82s7-2.14 7-4.79Z" class="cls-4"/>
    <ellipse cx="33" cy="33" class="cls-1" rx="3" ry="1"/>
</svg>
