<svg xmlns="http://www.w3.org/2000/svg" viewBox="0 0 64 64">
    <path fill="#ff927d" d="M37.69 3.941a6.33 2.777 0 0 1 11 2 6.33 2.777 0 0 0 6.64 2.914 6.33 2.777 0 0 1 4.56 4.826 6.32 2.773 0 0 0 0 4.115 6.33 2.777 0 0 1-4.56 4.826 6.33 2.777 0 0 0-6.64 2.913 6.33 2.777 0 0 1-11 2 6.32 2.773 0 0 0-9.38 0 6.33 2.777 0 0 1-11-2 6.33 2.777 0 0 0-6.64-2.913 6.33 2.777 0 0 1-4.56-4.826 6.32 2.773 0 0 0 0-4.115 6.33 2.777 0 0 1 4.56-4.826 6.33 2.777 0 0 0 6.63-2.913 6.33 2.777 0 0 1 11-2 6.32 2.773 0 0 0 9.39 0z"/>
    <circle cx="33" cy="32" r="22" fill="#fff35f" stroke="#54596e" stroke-linecap="round" stroke-linejoin="round" stroke-width="2"/>
    <path fill="#54596e" d="M33 48a22 22 0 0 1-21.79-19 22.78 22.78 0 0 0-.21 3 22 22 0 0 0 44 0 22.78 22.78 0 0 0-.21-3A22 22 0 0 1 33 48Z" opacity=".15"/>
    <circle cx="-27.025" cy="-23.564" r="5.069" fill="#fff" stroke="#1a1a1a" transform="rotate(-165)"/>
    <circle cx="46.742" cy="26.467" r="5.069" fill="#fff" stroke="#1a1a1a"/>
    <ellipse cx="20.22" cy="29.849" fill="#1a1a1a" class="cls-4" rx="3.548" ry="3.277"/>
    <ellipse cx="46.863" cy="26.482" fill="#1a1a1a" class="cls-4" rx="3.393" ry="3.238"/>
    <path fill="#e6dc61" d="M27.006 34.203c0 1.57 11.214 1.57 11.214 0 0-2.68-2.507-4.82-5.607-4.82s-5.607 2.14-5.607 4.79z" class="cls-4"/>
    <path fill="#fff" stroke="#000" stroke-width="2.168" d="m45.36 19.463-20.915-4.256"/>
    <path fill="#1a1a1a" d="M40.077 39.433c0-1.327-14.31-1.327-14.31 0 0 2.265 3.2 4.074 7.156 4.074 3.955 0 7.154-1.809 7.154-4.049z" class="cls-4"/>
    <ellipse cx="29.794" cy="34.244" fill="#1a1a1a" stroke="#000" rx=".929" ry=".348"/>
    <ellipse cx="35.289" cy="34.206" fill="#1a1a1a" stroke="#000" rx=".929" ry=".348"/>
    <path fill="#fff" d="M29.794 38.462h2.554v2.631h-2.554zM33.548 40.784h2.554v2.631h-2.554z" opacity=".98"/>
</svg>
