<svg xmlns="http://www.w3.org/2000/svg" class="icon" viewBox="0 0 1024 1024">
    <path fill="#E6EE9C" d="M121.941 763.136c177.003 177.067 464 177.067 640.982.021 177.002-177.088 177.002-464.17 0-641.258h-.022l-640.96 641.237z"/>
    <path fill="#FF1744" d="M701.845 702.08c143.296-143.36 143.296-375.744 0-519.083L182.976 702.08c143.296 143.36 375.616 143.36 518.87 0z"/>
    <path fill="#5D4037" d="M633.195 585.728a32.405 32.405 0 0 1-45.782 45.781c-12.65-12.65-22.912-68.714-22.912-68.714s56.043 10.261 68.694 22.933zm42.09-115.285A32.384 32.384 0 0 1 664 534.187c-17.6-3.094-66.09-44.544-66.09-44.544s59.797-22.336 77.375-19.2zm-8.874-121.515a32.341 32.341 0 0 1 37.077 26.816 32.299 32.299 0 0 1-26.816 37.099c-17.643 2.837-75.733-20.587-75.733-20.587s47.829-40.512 65.472-43.328zm-193.856 324.33a32.405 32.405 0 0 0 37.504 26.283 32.384 32.384 0 0 0 26.218-37.568c-3.114-17.6-44.544-66.09-44.544-66.09s-22.293 59.776-19.178 77.376zm-123.328-8.874a32.384 32.384 0 0 0 63.914 10.283c2.838-17.622-20.586-75.776-20.586-75.776s-40.491 47.829-43.328 65.493z"/>
    <path fill="#558B2F" d="M442.432 917.333c-121.6 0-243.179-46.314-335.765-138.944l30.528-30.506c168.32 168.341 442.133 168.362 610.474.021 81.579-81.643 126.55-190.101 126.528-305.344a429.013 429.013 0 0 0-126.549-305.365l30.507-30.528A471.893 471.893 0 0 1 917.333 442.56c.043 126.784-49.408 246.101-139.157 335.872-92.544 92.587-214.165 138.901-335.744 138.901z"/>
</svg>
